<svg xmlns="http://www.w3.org/2000/svg" viewBox="0 0 48 48" fill="none">
  <!-- Outer hexagonal shield -->
  <path d="M24 2L42 13v22L24 46 6 35V13L24 2z" fill="url(#grad1)" stroke="url(#grad2)" stroke-width="1.5"/>
  <!-- Inner neural network nodes -->
  <circle cx="24" cy="16" r="3.5" fill="#06B6D4"/>
  <circle cx="15" cy="28" r="3" fill="#8B5CF6"/>
  <circle cx="33" cy="28" r="3" fill="#8B5CF6"/>
  <circle cx="24" cy="36" r="2.5" fill="#06B6D4"/>
  <!-- Connection lines (agent flow) -->
  <line x1="24" y1="19.5" x2="15" y2="25" stroke="#06B6D4" stroke-width="1.2" opacity="0.7"/>
  <line x1="24" y1="19.5" x2="33" y2="25" stroke="#06B6D4" stroke-width="1.2" opacity="0.7"/>
  <line x1="15" y1="31" x2="24" y2="33.5" stroke="#8B5CF6" stroke-width="1.2" opacity="0.7"/>
  <line x1="33" y1="31" x2="24" y2="33.5" stroke="#8B5CF6" stroke-width="1.2" opacity="0.7"/>
  <line x1="15" y1="28" x2="33" y2="28" stroke="#06B6D4" stroke-width="0.8" opacity="0.4" stroke-dasharray="2 2"/>
  <!-- Center spark (forge) -->
  <path d="M22 24l2-4 2 4-2 4z" fill="#F59E0B" opacity="0.9"/>
  <defs>
    <linearGradient id="grad1" x1="6" y1="2" x2="42" y2="46">
      <stop offset="0%" stop-color="#0F172A"/>
      <stop offset="100%" stop-color="#1E293B"/>
    </linearGradient>
    <linearGradient id="grad2" x1="6" y1="2" x2="42" y2="46">
      <stop offset="0%" stop-color="#06B6D4"/>
      <stop offset="100%" stop-color="#8B5CF6"/>
    </linearGradient>
  </defs>
</svg>
